<?xml version="1.0" standalone="no"?><!DOCTYPE svg PUBLIC "-//W3C//DTD SVG 1.1//EN" "http://www.w3.org/Graphics/SVG/1.1/DTD/svg11.dtd"><svg class="icon" width="200px" height="200.00px" viewBox="0 0 1024 1024" version="1.1" xmlns="http://www.w3.org/2000/svg"><path fill="#2CA43A" d="M404.967 616.671c-53.846 29.901-61.832-16.786-61.832-16.786l-67.484-156.856c-25.966-74.536 22.473-33.607 22.473-33.607s41.563 31.319 73.107 50.404c31.527 19.085 67.463 5.602 67.463 5.602l441.18-202.832C798.477 161.714 664.019 95.75 511.796 95.75c-248.427 0-449.795 175.546-449.795 392.106 0 124.563 66.679 235.429 170.539 307.285l-18.73 107.243s-9.13 31.309 22.513 16.787c21.563-9.901 76.534-45.382 109.257-66.974 51.443 17.856 107.488 27.771 166.24 27.771 248.407 0 449.815-175.546 449.815-392.11 0-62.726-16.972-121.965-47.035-174.547-140.561 84.238-467.499 280.004-509.632 303.361z m0 0z"  /></svg>